<svg width="512" height="512" viewBox="0 0 512 512" fill="none" xmlns="http://www.w3.org/2000/svg">
<rect width="512" height="512" fill="white"/>
<path d="M237.907 199.117C249.797 199.117 261.687 199.117 273.937 199.117C273.937 227.121 273.937 255.125 273.937 283.977C262.047 283.977 250.157 283.977 237.907 283.977C237.907 255.973 237.907 227.97 237.907 199.117Z" fill="#00BFFF"/>
<path d="M211.697 199.025C212.207 199.026 212.716 199.027 213.241 199.028C215.132 199.033 217.023 199.046 218.914 199.058C225.265 199.088 225.265 199.088 231.744 199.117C231.744 216.17 231.744 233.222 231.744 250.792C226.444 250.88 221.145 250.968 215.684 251.058C214.02 251.097 212.355 251.136 210.64 251.176C208.585 251.195 208.585 251.195 207.619 251.199C206.953 251.205 206.288 251.22 205.622 251.242C201.965 251.356 199.168 251.3 196.286 248.78C194.258 246.683 192.752 244.384 191.447 241.784C191.263 241.416 191.078 241.048 190.888 240.669C188.775 236.18 188.442 232.156 188.455 227.236C188.447 226.672 188.44 226.107 188.432 225.526C188.427 217.663 190.506 210.114 196.075 204.317C201.034 199.956 205.28 198.968 211.697 199.025Z" fill="#00BFFF"/>
<path d="M280.1 199.117C309.801 199.117 309.801 199.117 316.083 205.206C322.334 211.882 323.734 220.299 323.453 229.121C323.031 236.167 320.536 244.024 315.181 248.895C313.062 250.534 311.726 251.027 309.054 251.007C308.575 251.007 308.575 251.007 308.085 251.007C307.059 251.006 306.033 250.992 305.007 250.977C304.37 250.974 303.733 250.972 303.095 250.971C300.744 250.961 298.392 250.935 296.04 250.91C288.15 250.851 288.15 250.851 280.1 250.792C280.1 233.739 280.1 216.687 280.1 199.117Z" fill="#00BFFF"/>
<rect x="157.622" y="225.318" width="139.127" height="139.127" rx="11.3778" transform="rotate(-45 157.622 225.318)" stroke="#00BFFF" stroke-width="5.68889"/>
<path d="M173.584 375.623C171.2 375.623 169.052 375.027 167.138 373.836C165.224 372.644 163.725 371.019 162.642 368.96C161.558 366.902 161.017 364.591 161.017 362.027C161.017 359.427 161.558 357.098 162.642 355.039C163.725 352.981 165.224 351.356 167.138 350.164C169.052 348.973 171.2 348.377 173.584 348.377C175.461 348.377 177.141 348.756 178.621 349.514C180.102 350.273 181.275 351.338 182.142 352.71C183.045 354.046 183.532 355.563 183.605 357.26V366.685C183.532 368.419 183.045 369.954 182.142 371.29C181.275 372.626 180.102 373.691 178.621 374.486C177.141 375.244 175.461 375.623 173.584 375.623ZM174.884 369.069C176.87 369.069 178.477 368.419 179.705 367.119C180.932 365.783 181.546 364.067 181.546 361.973C181.546 360.601 181.257 359.391 180.68 358.344C180.138 357.26 179.361 356.43 178.35 355.852C177.375 355.238 176.22 354.931 174.884 354.931C173.584 354.931 172.428 355.238 171.417 355.852C170.442 356.43 169.665 357.26 169.088 358.344C168.546 359.391 168.275 360.601 168.275 361.973C168.275 363.381 168.546 364.627 169.088 365.71C169.665 366.758 170.442 367.588 171.417 368.202C172.428 368.78 173.584 369.069 174.884 369.069ZM181.167 386.023V368.473L182.305 362.135L181.167 355.798V348.918H188.209V386.023H181.167ZM205.645 375.623C203.334 375.623 201.275 375.136 199.47 374.161C197.7 373.186 196.31 371.831 195.299 370.098C194.288 368.365 193.782 366.36 193.782 364.085V348.918H200.932V363.923C200.932 365.006 201.113 365.945 201.474 366.74C201.835 367.498 202.377 368.076 203.099 368.473C203.821 368.87 204.67 369.069 205.645 369.069C207.126 369.069 208.281 368.617 209.112 367.715C209.942 366.812 210.358 365.548 210.358 363.923V348.918H217.454V364.085C217.454 366.397 216.948 368.419 215.937 370.152C214.962 371.886 213.572 373.24 211.766 374.215C209.996 375.154 207.956 375.623 205.645 375.623ZM234.046 375.623C231.663 375.623 229.514 375.027 227.6 373.836C225.686 372.644 224.188 371.019 223.104 368.96C222.021 366.902 221.479 364.591 221.479 362.027C221.479 359.427 222.021 357.098 223.104 355.039C224.188 352.981 225.686 351.356 227.6 350.164C229.514 348.973 231.663 348.377 234.046 348.377C235.924 348.377 237.603 348.756 239.084 349.514C240.564 350.273 241.738 351.338 242.605 352.71C243.507 354.046 243.995 355.563 244.067 357.26V366.685C243.995 368.419 243.507 369.954 242.605 371.29C241.738 372.626 240.564 373.691 239.084 374.486C237.603 375.244 235.924 375.623 234.046 375.623ZM235.346 369.069C237.332 369.069 238.939 368.419 240.167 367.119C241.395 365.783 242.009 364.067 242.009 361.973C242.009 360.601 241.72 359.391 241.142 358.344C240.6 357.26 239.824 356.43 238.813 355.852C237.838 355.238 236.682 354.931 235.346 354.931C234.046 354.931 232.891 355.238 231.879 355.852C230.904 356.43 230.128 357.26 229.55 358.344C229.009 359.391 228.738 360.601 228.738 361.973C228.738 363.381 229.009 364.627 229.55 365.71C230.128 366.758 230.904 367.588 231.879 368.202C232.891 368.78 234.046 369.069 235.346 369.069ZM241.63 375.081V368.04L242.767 361.648L241.63 355.364V348.918H248.671V375.081H241.63ZM254.949 375.081V335.918H262.045V375.081H254.949ZM268.332 375.081V348.918H275.482V375.081H268.332ZM271.907 344.693C270.752 344.693 269.795 344.314 269.036 343.556C268.278 342.761 267.899 341.786 267.899 340.631C267.899 339.511 268.278 338.554 269.036 337.76C269.795 336.965 270.752 336.568 271.907 336.568C273.099 336.568 274.056 336.965 274.778 337.76C275.537 338.554 275.916 339.511 275.916 340.631C275.916 341.786 275.537 342.761 274.778 343.556C274.056 344.314 273.099 344.693 271.907 344.693ZM285.614 375.081V338.031H292.71V375.081H285.614ZM279.493 355.148V348.918H298.831V355.148H279.493ZM313.129 375.623C310.746 375.623 308.597 375.027 306.683 373.836C304.769 372.644 303.27 371.019 302.187 368.96C301.104 366.902 300.562 364.591 300.562 362.027C300.562 359.427 301.104 357.098 302.187 355.039C303.27 352.981 304.769 351.356 306.683 350.164C308.597 348.973 310.746 348.377 313.129 348.377C315.007 348.377 316.686 348.756 318.167 349.514C319.647 350.273 320.821 351.338 321.687 352.71C322.59 354.046 323.078 355.563 323.15 357.26V366.685C323.078 368.419 322.59 369.954 321.687 371.29C320.821 372.626 319.647 373.691 318.167 374.486C316.686 375.244 315.007 375.623 313.129 375.623ZM314.429 369.069C316.415 369.069 318.022 368.419 319.25 367.119C320.478 365.783 321.092 364.067 321.092 361.973C321.092 360.601 320.803 359.391 320.225 358.344C319.683 357.26 318.907 356.43 317.896 355.852C316.921 355.238 315.765 354.931 314.429 354.931C313.129 354.931 311.973 355.238 310.962 355.852C309.987 356.43 309.211 357.26 308.633 358.344C308.091 359.391 307.82 360.601 307.82 361.973C307.82 363.381 308.091 364.627 308.633 365.71C309.211 366.758 309.987 367.588 310.962 368.202C311.973 368.78 313.129 369.069 314.429 369.069ZM320.712 375.081V368.04L321.85 361.648L320.712 355.364V348.918H327.754V375.081H320.712ZM337.878 375.081V338.031H344.974V375.081H337.878ZM331.757 355.148V348.918H351.095V355.148H331.757Z" fill="#00BFFF"/>
</svg>
